# xmcd
# Copyright (C) 1995-1998 Ti Kan
#
# Track frame offsets:
#       150
#       13785
#       27253
#       41886
#       62854
#
# Disc length: 1048 seconds
#
# Revision: 0
# Processed by: cddbd v1.5.2PL0 Copyright (c) Steve Scherf et al.
# Submitted via: CD-Import v1.0
#
DISCID=3f041605
DTITLE=Raptor Kit - Please Don't Miss....
DYEAR=09
DGENRE=
TTITLE0=Something's Near
TTITLE1=Photograph
TTITLE2=What I Could Destroy
TTITLE3=Fragmentary
TTITLE4=3:17 Am
EXTD=
EXTT0=
EXTT1=
EXTT2=
EXTT3=
EXTT4=
PLAYORDER=
